<?xml version="1.0" encoding="utf-8"?>
<!-- Generator: Adobe Illustrator 22.0.0, SVG Export Plug-In . SVG Version: 6.00 Build 0)  -->
<svg version="1.1" id="Capa_1" xmlns="http://www.w3.org/2000/svg" xmlns:xlink="http://www.w3.org/1999/xlink" x="0px" y="0px"
	 viewBox="0 0 15 15" style="enable-background:new 0 0 15 15;" xml:space="preserve">
<style type="text/css">
	.st0{fill:#FF1010;}
</style>
<g>
	<g>
		<path class="st0" d="M9.8,5.5c-0.2,0-0.3,0-0.3,0.4v1.8h0.6V5.8C10.1,5.5,10,5.5,9.8,5.5z"/>
	</g>
	<g>
		<polygon class="st0" points="5.7,4.5 5.4,8.4 6.1,8.4 5.8,4.5 		"/>
	</g>
	<g>
		<path class="st0" d="M7.5,0.5c-3.9,0-7,3.1-7,7s3.1,7,7,7s7-3.1,7-7S11.4,0.5,7.5,0.5z M6.5,12.1L6.2,9.6h-1l-0.3,2.5H3.7l1.1-9.3
			h2.1l1.1,9.3H6.5z M11.3,8.5H9.5v2.4c0,0.3,0.1,0.4,0.3,0.4c0.2,0,0.3,0,0.3-0.4V9.2h1.3v1.8c0,0.8-0.6,1.3-1.6,1.3
			s-1.6-0.5-1.6-1.3V5.8c0-0.8,0.6-1.3,1.6-1.3s1.6,0.5,1.6,1.3V8.5z"/>
	</g>
</g>
</svg>
