<svg width="145" height="145" viewBox="0 0 145 145" fill="none" xmlns="http://www.w3.org/2000/svg">
<g id="icon-lectura 1">
<g id="Group">
<g id="tipo">
<g id="Group_2">
<path id="Vector" d="M61.0206 93.0415C65.8539 93.0415 71.2914 93.0415 76.1248 93.0415C76.7289 93.0415 77.3331 93.0415 77.3331 93.0415C77.9373 93.6456 77.3331 97.2706 77.3331 97.8748C76.1248 99.0831 75.5206 100.291 74.3123 100.896C72.4998 102.104 71.8956 103.312 71.8956 105.125C71.8956 106.937 71.8956 109.354 71.8956 111.166C71.8956 112.375 71.8956 112.375 70.6873 112.375C65.2498 112.375 59.2081 112.375 53.7706 112.375C53.1664 112.375 52.5623 112.375 52.5623 111.166C52.5623 107.541 52.5623 103.916 52.5623 100.291C52.5623 97.8748 51.3539 96.6665 49.5414 96.6665C47.7289 96.6665 45.9164 96.6665 44.1039 96.6665C44.1039 96.6665 43.4998 96.0623 43.4998 95.4581C43.4998 92.4373 43.4998 93.0415 45.9164 93.0415C50.1456 92.4373 55.5831 93.0415 61.0206 93.0415Z" fill="#FF1010"/>
</g>
<g id="Group_3">
<path id="Vector_2" d="M42.2917 80.3533C42.2917 77.3325 42.2917 74.9158 42.2917 71.895C42.2917 68.27 42.2917 68.27 45.3126 68.27C47.1251 68.27 49.5417 68.27 51.3542 68.27C51.3542 70.0825 51.3542 72.4992 51.3542 74.3117C51.3542 79.7492 51.3542 85.1867 51.3542 90.02C51.3542 91.2283 51.3542 91.2283 50.1459 91.2283C47.7292 91.2283 44.7084 91.2283 42.2917 91.2283C42.2917 88.8117 42.2917 85.7908 42.2917 83.3742C42.2917 82.77 42.2917 81.5617 42.2917 80.3533Z" fill="#FF1010"/>
</g>
<g id="Group_4">
<path id="Vector_3" d="M65.8547 91.8324C62.2297 91.8324 59.2089 91.8324 55.5839 91.8324C55.5839 91.8324 54.9797 91.8324 54.9797 91.2282C54.3755 91.2282 54.9797 90.624 54.9797 90.624C61.6255 90.624 68.2714 90.624 74.9172 90.624C75.5214 90.624 76.1255 90.624 76.7297 90.624C76.7297 90.624 77.3339 90.624 77.3339 91.2282C77.3339 91.8324 76.7297 91.8324 76.7297 91.8324C73.1047 91.8324 69.4797 91.8324 65.8547 91.8324Z" fill="#FF1010"/>
</g>
<g id="Group_5">
<path id="Vector_4" d="M47.1251 67.0612C45.9168 67.0612 44.7084 67.0612 42.8959 67.0612C42.8959 66.457 42.2917 66.457 42.2917 66.457C42.2917 66.457 42.2917 65.8529 42.8959 65.2487C43.5001 64.6445 44.1042 64.6445 44.7084 64.6445C46.5209 64.6445 48.3334 64.6445 50.7501 64.6445C51.3543 64.6445 51.9584 65.2487 51.9584 65.2487C51.9584 65.2487 52.5626 65.8529 52.5626 66.457L51.9584 67.0612C50.1459 67.0612 48.9376 67.0612 47.1251 67.0612Z" fill="#FF1010"/>
</g>
<g id="tipowater">
<g id="Group_6">
<path id="Vector_5" d="M102.708 50.1447L101.5 48.3322C100.896 47.1239 100.292 46.5197 100.292 45.3114C99.6875 44.103 99.0833 43.4989 98.4791 42.2905C97.875 43.4989 97.2708 44.103 96.6666 45.3114C96.0625 45.9155 95.4583 46.5197 96.6666 47.1239L102.708 50.1447Z" fill="#FF1010"/>
</g>
<g id="Group 1">
<g id="Group_7">
<path id="Vector_6" d="M79.7497 77.9361C76.7289 78.5403 75.5206 76.7278 74.3122 74.9153C71.8956 71.2903 69.4789 67.0611 66.458 63.4361C65.2497 62.2278 65.2497 59.8111 65.8539 57.9986C66.458 56.1861 70.0831 55.5819 71.2914 56.7903C73.7081 58.6028 75.5206 61.6236 77.3331 64.6444C78.5414 66.4569 79.7497 68.2694 80.958 70.0819C82.7705 68.8736 84.583 68.2694 85.7914 67.0611C87.6039 65.8528 89.4164 64.6444 91.2289 63.4361C92.4372 62.2278 93.6456 62.2278 95.4581 62.2278C96.6664 62.2278 98.4789 64.0403 98.4789 64.6444C99.083 65.8528 97.8747 67.6653 96.6664 68.8736C92.4372 71.8944 88.208 74.9153 83.9789 77.3319C82.7705 77.9361 81.5622 77.9361 79.7497 77.9361Z" fill="#FF1010"/>
</g>
<g id="Group_8">
<path id="Vector_7" d="M101.5 50.7493C98.4793 49.541 96.0627 48.3327 93.0418 46.5202C93.0418 46.5202 92.4377 46.5202 91.8335 45.916C91.2293 46.5202 91.2293 46.5202 91.2293 47.1244C89.4168 51.3535 87.0002 55.5827 85.1877 59.2077C83.9793 61.6244 84.5835 62.2285 87.0002 62.8327C88.2085 62.8327 88.8127 62.8327 89.4168 62.2285C91.2293 61.0202 93.0418 59.2077 95.4585 61.0202C96.6668 61.6244 97.271 61.6243 97.8752 60.416C99.0835 57.9993 100.292 54.9785 101.5 52.5618C102.708 51.3535 102.104 50.7493 101.5 50.7493Z" fill="#FF1010"/>
</g>
<g id="Group_9">
<path id="Vector_8" d="M72.5003 52.5617C78.1728 52.5617 82.7712 47.9633 82.7712 42.2909C82.7712 36.6184 78.1728 32.02 72.5003 32.02C66.8279 32.02 62.2295 36.6184 62.2295 42.2909C62.2295 47.9633 66.8279 52.5617 72.5003 52.5617Z" fill="#FF1010"/>
</g>
<g id="Group_10">
<path id="Vector_9" d="M94.854 106.937C94.854 103.916 94.854 100.895 94.854 97.8744C94.854 94.8535 94.854 91.8327 94.854 88.8119C94.854 85.791 93.6457 83.9785 91.8332 82.166C90.6249 80.9577 89.4165 80.3535 87.604 80.3535C83.3749 80.3535 79.1457 80.3535 74.3124 80.3535C73.104 80.3535 72.4999 79.7494 73.104 79.1452C74.3124 77.9369 73.104 76.7285 73.104 75.5202C72.4999 74.3119 71.2915 73.7077 70.6874 72.4994C68.8749 69.4785 66.4582 66.4577 64.6457 62.8327C64.6457 62.2285 64.0415 58.6035 67.0624 56.791C67.6665 56.791 67.6665 56.791 68.2707 56.791C70.6874 56.791 71.8957 57.3952 73.104 59.2077C73.7082 60.416 74.9165 61.6244 76.1249 62.8327C76.729 63.4369 76.729 64.041 77.3332 64.6452C77.3332 64.041 77.3332 63.4369 77.3332 62.8327C77.3332 61.0202 76.729 59.8119 75.5207 58.6035C74.9165 57.9994 74.3124 57.3952 73.7082 56.791C70.6874 54.3743 65.854 54.3743 62.229 56.791C60.4165 56.791 60.4165 59.2077 59.8123 61.6244C58.604 65.2494 57.3957 68.2702 56.7915 71.8952C56.1873 75.5202 54.3749 78.541 54.979 82.7702C55.5832 85.1869 57.9999 88.8119 60.4165 89.416C62.8332 90.0202 64.6457 90.0202 67.0624 90.0202C72.4999 90.0202 77.3332 90.0202 82.7707 90.0202C83.979 90.0202 83.979 90.0202 83.979 91.2285C83.979 94.8535 83.979 97.8744 83.979 101.499C83.979 103.916 83.979 105.729 83.979 108.145C83.979 111.166 88.8124 114.187 91.229 112.374C93.0415 111.166 94.854 109.354 94.854 106.937Z" fill="#FF1010"/>
</g>
</g>
</g>
</g>
<g id="Group_11">
<path id="Vector_10" d="M72.4996 142.583C33.8329 142.583 2.41626 111.166 2.41626 72.4996C2.41626 33.8329 33.8329 2.41626 72.4996 2.41626C111.166 2.41626 142.583 33.8329 142.583 72.4996C142.583 111.166 111.166 142.583 72.4996 142.583ZM72.4996 9.66626C38.0621 9.66626 9.66626 38.0621 9.66626 72.4996C9.66626 106.937 37.4579 135.333 72.4996 135.333C107.541 135.333 135.333 106.937 135.333 72.4996C135.333 38.0621 106.937 9.66626 72.4996 9.66626Z" fill="#FF1010"/>
</g>
</g>
</g>
</svg>
