<svg width="49" height="49" viewBox="0 0 49 49" fill="none" xmlns="http://www.w3.org/2000/svg">
<g id="icon-foco 2" clip-path="url(#clip0)">
<g id="Group">
<path id="Vector" d="M13.3936 47.3666C13.3936 44.1 13.3936 40.8333 13.3936 37.24C14.3736 37.24 15.0269 36.9133 16.0069 36.9133C16.6602 32.9933 14.3736 29.4 12.0869 26.46C8.1669 20.9066 8.1669 15.3533 11.1069 9.4733C14.0469 3.91997 20.2536 0.979965 26.1336 1.6333C32.6669 2.6133 36.9136 6.20663 38.8736 12.74C40.5069 17.64 39.2002 22.2133 36.5869 26.46C35.2802 28.42 34.3002 30.38 33.3202 32.6666C32.6669 33.9733 32.9936 35.6066 32.6669 36.9133C33.9736 36.9133 34.9536 36.9133 35.9336 37.24C35.9336 40.5066 35.9336 43.7733 35.9336 47.3666C28.7469 47.3666 21.2336 47.3666 13.3936 47.3666ZM30.3802 37.24C30.7069 32.6666 32.0136 28.7466 34.6269 25.1533C38.8736 19.6 37.8936 12.0866 32.9936 7.5133C28.0936 3.26663 20.5802 3.26663 16.0069 7.83997C11.1069 12.4133 10.4536 19.6 14.7002 25.1533C15.6802 26.46 16.6602 28.0933 17.3136 29.7266C18.2936 32.0133 18.6202 34.3 19.6002 36.9133C22.8669 37.24 26.4602 37.24 30.3802 37.24ZM33.6469 44.7533C33.6469 43.12 33.6469 41.4866 33.6469 39.8533C27.7669 39.8533 21.8869 39.8533 16.3336 39.8533C16.3336 41.4866 16.3336 43.12 16.3336 44.7533C21.8869 44.7533 27.7669 44.7533 33.6469 44.7533Z" fill="#FF1010"/>
<g id="rayo" fill="#FF1010">
<path id="Vector_2" d="M22.8669 33.9734C22.5402 33.9734 22.5402 33.9734 22.2136 33.9734C21.8869 33.3201 21.5602 32.6667 21.8869 32.3401L27.1136 22.2134H19.9269C19.6002 22.2134 19.2736 21.8867 18.9469 21.5601C18.6202 21.2334 18.6202 20.9067 18.9469 20.5801L24.1736 8.82006C24.5002 8.16673 25.1536 7.84006 25.4802 8.16673C25.8069 8.49339 26.1336 9.14673 25.8069 9.47339L21.5602 19.9267H28.7469C29.0736 19.9267 29.4002 20.2534 29.7269 20.5801C30.0536 20.9067 30.0536 21.2334 29.7269 21.5601L23.8469 33.3201C23.8469 33.6467 23.1936 33.9734 22.8669 33.9734Z" />
</g>
</g>
</g>
<defs>
<clipPath id="clip0">
<rect width="49" height="49" fill="white"/>
</clipPath>
</defs>
</svg>
