<?xml version="1.0" encoding="utf-8"?>
<!-- Generator: Adobe Illustrator 22.0.0, SVG Export Plug-In . SVG Version: 6.00 Build 0)  -->
<svg version="1.1" id="Capa_1" xmlns="http://www.w3.org/2000/svg" xmlns:xlink="http://www.w3.org/1999/xlink" x="0px" y="0px"
	 viewBox="0 0 15 15" style="enable-background:new 0 0 15 15;" xml:space="preserve">
<style type="text/css">
	.st0{fill:#FF1010;}
</style>
<g>
	<g>
		<path class="st0" d="M19.5,7.5"/>
	</g>
</g>
<g>
	<g>
		<path class="st0" d="M7.5,0.5c-3.9,0-7,3.1-7,7s3.1,7,7,7s7-3.1,7-7S11.4,0.5,7.5,0.5z M7.4,6.7c0,1.3-0.6,1.9-1.7,1.9H5.2v3.6
			H3.8V2.8h1.5c1.4,0,2.2,0.5,2.2,1.8V6.7z M11.2,8.6H9.9V6.1c0-0.2,0-0.5-0.3-0.5c-0.3,0-0.3,0.2-0.3,0.5v6H8.1V4.7h1.3v0.4h0
			c0.2-0.4,0.5-0.5,0.9-0.5c1,0,1,0.6,1,1.4V8.6z"/>
	</g>
	<g>
		<path class="st0" d="M5.5,4H5.2v3.5c0.4,0,0.8,0,0.8-0.4V4.8C6.1,4.2,5.9,4,5.5,4z"/>
	</g>
</g>
<g>
	<g>
		<path class="st0" d="M-56.5,7.5"/>
	</g>
</g>
</svg>
