<?xml version="1.0" encoding="utf-8"?>
<!-- Generator: Adobe Illustrator 22.0.0, SVG Export Plug-In . SVG Version: 6.00 Build 0)  -->
<svg version="1.1" id="Capa_1" xmlns="http://www.w3.org/2000/svg" xmlns:xlink="http://www.w3.org/1999/xlink" x="0px" y="0px"
	 viewBox="0 0 15 15" style="enable-background:new 0 0 15 15;" xml:space="preserve">
<style type="text/css">
	.st0{fill:#FF1010;}
</style>
<g>
	<path class="st0" d="M8.5,5.6c-0.2,0-0.3,0.1-0.3,0.5v4.6c0,0.4,0.1,0.5,0.3,0.5s0.3-0.1,0.3-0.5V6.1C8.8,5.7,8.7,5.6,8.5,5.6z"/>
	<path class="st0" d="M7.5,0.5c-3.9,0-7,3.1-7,7s3.1,7,7,7s7-3.1,7-7S11.4,0.5,7.5,0.5z M6.3,12.1H4.9V2.8h1.4V12.1z M8.8,12.1v-0.4
		c-0.2,0.3-0.5,0.5-0.9,0.5c-0.5,0-0.9-0.3-0.9-0.9V5.4c0-0.6,0.4-0.9,0.9-0.9c0.4,0,0.7,0.3,0.9,0.6V2.8H10v9.3H8.8z"/>
</g>
</svg>
