<svg width="145" height="145" viewBox="0 0 145 145" fill="none" xmlns="http://www.w3.org/2000/svg">
<g id="icon-cine 1">
<g id="Group">
<path id="Vector" d="M72.4998 142.583C33.8332 142.583 2.4165 111.167 2.4165 72.4998C2.4165 33.8332 33.8332 2.4165 72.4998 2.4165C111.167 2.4165 142.583 33.8332 142.583 72.4998C142.583 111.167 111.167 142.583 72.4998 142.583ZM72.4998 9.66651C38.0623 9.66651 9.66651 38.0623 9.66651 72.4998C9.66651 106.937 37.4582 135.333 72.4998 135.333C107.542 135.333 135.333 106.937 135.333 72.4998C135.333 38.0623 106.937 9.66651 72.4998 9.66651Z" fill="#FF1010"/>
</g>
<g id="Group_2">
<path id="sombrero" d="M103.313 76.1255C94.8547 76.1255 86.3964 75.5213 77.938 74.313C68.8755 73.1047 59.813 71.8963 50.7505 70.0838C44.7089 68.8755 39.2714 67.063 33.2297 65.2505C30.813 64.6463 28.3964 62.8338 26.5839 61.6255C25.3755 61.0213 25.3755 60.4172 24.7714 59.813C24.1672 59.2088 24.1672 58.6047 25.3755 58.6047C27.188 58.6047 29.0005 58.6047 30.2089 58.6047C32.0214 58.6047 33.8339 59.2088 35.0422 59.813C37.4589 60.4172 38.063 59.813 38.6672 57.3963C39.2714 53.7713 39.8755 49.5422 41.0839 45.9172C41.688 42.8963 42.2922 40.4797 42.8964 37.4588C46.5214 27.188 54.3755 21.1463 65.2505 19.938C74.9172 18.7297 83.9797 19.938 92.438 23.563C105.126 29.0005 110.563 39.2713 108.751 52.563C108.146 55.5838 108.146 58.6047 107.542 61.6255C107.542 62.8338 107.542 64.0422 107.542 65.2505C107.542 68.2713 108.146 68.2713 110.563 68.8755C112.98 68.8755 115.396 69.4797 117.813 70.0838C119.021 70.0838 120.23 71.2921 120.23 71.8963C120.23 73.1046 119.021 73.7088 117.813 73.7088C114.188 74.9171 110.563 75.5213 106.334 75.5213C105.73 76.1255 104.521 76.1255 103.313 76.1255Z" fill="#FF1010"/>
<path id="bigote" d="M70.0841 125.063C67.6674 125.063 65.8549 125.063 63.4382 125.063C60.4174 125.063 59.209 123.251 60.4174 120.23C61.0216 118.417 62.2299 116.605 63.4382 115.397C64.6466 114.188 65.8549 113.584 67.6674 114.792C68.8757 115.397 70.0841 115.397 71.2924 114.792C73.1049 114.188 74.3132 114.188 75.5216 115.397C76.7299 117.209 77.9382 119.022 79.1466 120.834C80.3549 123.251 79.1466 125.063 76.1257 125.063C74.9174 125.667 72.5007 125.063 70.0841 125.063Z" fill="#FF1010"/>
</g>
</g>
</svg>
