<svg width="145" height="145" viewBox="0 0 145 145" fill="none" xmlns="http://www.w3.org/2000/svg">
<g id="icon-caminar 1">
<g id="Group">
<g id="Group_2">
<g id="humano">
<path id="Vector" d="M65.2493 82.1662C62.8326 80.3537 64.0409 77.937 62.2284 75.5204C61.6243 74.9162 61.0201 74.312 61.0201 73.1037C60.4159 72.4995 59.2076 71.8954 57.3951 71.2912C56.1868 70.687 54.3743 70.687 53.1659 71.2912C52.5618 71.2912 51.9576 70.687 51.3534 70.687C48.3326 68.8745 45.9159 66.4579 44.7076 63.437C44.7076 62.8329 44.1034 62.2287 44.1034 61.6245C44.1034 61.6245 44.1034 61.6245 44.1034 61.0204C42.8951 59.812 42.2909 57.9995 41.0826 56.7912C40.4784 55.5829 39.2701 54.9787 38.0618 54.3745C37.4576 54.3745 37.4576 53.7704 36.8534 53.7704C36.8534 53.1662 36.8534 53.1662 37.4576 52.562C39.2701 51.9579 39.8743 50.7495 40.4784 49.5412C40.4784 48.937 41.0826 48.937 41.0826 48.3329C41.0826 47.7287 41.0826 47.1245 41.0826 46.5204C41.0826 45.9162 40.4784 44.7079 40.4784 44.1037C40.4784 42.8954 41.0826 41.0829 39.8743 39.8745C39.2701 39.2704 39.8743 38.6662 38.6659 38.6662C37.4576 37.4579 36.8534 38.6662 35.6451 38.6662C33.8326 38.6662 32.6243 39.2704 31.4159 40.4787C31.4159 40.4787 31.4159 40.4787 30.8118 40.4787C30.2076 41.0829 29.6034 41.0829 29.6034 42.2912C30.2076 43.4995 30.2076 44.7079 30.8118 45.9162C30.8118 46.5204 31.4159 47.1245 30.8118 47.7287C29.6034 47.7287 30.2076 48.937 30.8118 49.5412C31.4159 50.1454 31.4159 50.1454 32.0201 50.7495C32.6243 51.3537 33.2284 51.9579 33.8326 52.562L34.4368 53.1662C34.4368 53.1662 33.8326 53.1662 33.8326 53.7704C32.6243 53.7704 30.8118 53.7704 29.6034 54.3745C25.9784 54.3745 23.5618 54.3745 21.1451 56.7912C18.7284 58.6037 17.5201 60.4162 17.5201 63.437C17.5201 65.2495 17.5201 66.4579 17.5201 68.2704C17.5201 68.8745 17.5201 70.0829 16.9159 70.687C16.3118 71.8954 15.7076 73.7079 16.3118 75.5204C16.3118 76.1245 16.9159 76.7287 17.5201 76.7287C18.1243 76.7287 18.1243 76.1245 18.7284 76.1245C19.3326 76.1245 19.3326 75.5204 19.9368 76.1245H20.5409C21.1451 74.9162 21.1451 73.1037 20.5409 71.8954C20.5409 71.2912 19.9368 70.687 19.9368 70.0829C19.9368 68.2704 19.9368 66.4579 20.5409 64.6454C20.5409 62.8329 21.7493 61.6245 23.5618 61.6245C24.7701 61.6245 25.3743 61.0204 26.5826 60.4162C27.1868 60.4162 27.1868 60.4162 27.1868 61.0204C25.9784 65.2495 25.3743 69.4787 25.9784 73.7079C25.9784 74.9162 26.5826 76.7287 27.1868 77.937C28.3951 81.562 30.2076 85.187 31.4159 88.812C31.4159 89.4162 31.4159 89.4162 31.4159 90.0204C29.6034 91.8329 27.7909 94.2495 25.9784 96.062C25.3743 96.6662 25.3743 96.6662 25.3743 97.2704V97.8745C23.5618 98.4787 22.9576 99.687 21.7493 100.895C21.1451 101.5 21.1451 101.5 21.7493 102.104C22.9576 103.312 24.1659 103.916 25.3743 105.125C26.5826 105.729 27.1868 106.333 28.3951 106.937C28.9993 106.937 29.6034 106.937 29.6034 106.937C30.2076 106.333 30.2076 105.125 29.6034 104.52C27.7909 103.916 27.7909 102.708 27.1868 100.895C27.1868 100.291 26.5826 100.291 26.5826 99.687C26.5826 99.0829 26.5826 98.4787 26.5826 98.4787C26.5826 98.4787 27.1868 98.4787 27.7909 98.4787C28.3951 98.4787 28.9993 97.8745 28.9993 97.8745C30.2076 96.6662 31.4159 94.8537 32.6243 93.6454C33.2284 93.0412 33.2284 93.0412 33.8326 93.6454C34.4368 95.4579 35.6451 97.8745 36.2493 99.687C36.2493 100.291 36.8534 100.291 37.4576 100.895C37.4576 101.5 38.0618 101.5 38.0618 102.104C37.4576 103.916 38.6659 105.125 39.2701 106.937C39.2701 106.937 39.8743 107.541 40.4784 107.541C42.2909 106.937 44.1034 105.729 45.9159 105.125C46.5201 104.52 47.7284 103.916 48.3326 103.916L48.9368 102.708C48.3326 102.104 47.7284 100.895 47.1243 101.5C45.9159 102.708 44.1034 102.104 42.8951 101.5C42.2909 101.5 42.2909 101.5 41.6868 101.5C41.0826 101.5 41.0826 100.895 40.4784 100.895L41.0826 100.291C41.0826 99.687 41.0826 99.687 41.0826 99.0829C39.8743 96.062 39.2701 93.0412 38.0618 90.6245C38.0618 90.0204 38.0618 89.4162 38.0618 88.812C39.2701 87.6037 39.2701 85.7912 39.2701 84.5829C39.2701 82.1662 39.2701 79.7495 39.2701 77.3329C39.2701 74.9162 39.8743 73.1037 39.8743 70.687C39.8743 68.8745 40.4784 67.062 40.4784 65.2495V64.6454L41.0826 65.2495C41.6868 65.8537 42.2909 66.4579 42.2909 67.062C44.7076 70.0829 47.1243 72.4995 50.7493 74.312C51.3534 74.9162 51.9576 74.9162 52.5618 76.1245C53.1659 77.3329 53.7701 77.937 54.9784 77.937C55.5826 77.937 56.1868 77.937 56.7909 78.5412C57.9993 79.7495 60.4159 79.7495 61.0201 77.937C61.6243 77.3329 61.6243 77.937 61.6243 77.937C64.0409 80.9579 63.4368 83.9787 66.4576 85.7912C68.2701 86.9995 110.562 77.3329 112.374 78.5412V77.937C109.958 74.9162 67.6659 84.5829 65.2493 82.1662ZM34.4368 80.3537C33.8326 80.3537 33.8326 80.3537 34.4368 80.3537C33.8326 79.1454 33.2284 78.5412 32.6243 77.3329C32.6243 76.7287 32.6243 76.7287 32.6243 76.1245C33.2284 76.1245 33.2284 76.1245 33.8326 76.1245L34.4368 76.7287C34.4368 77.3329 34.4368 77.937 34.4368 78.5412C34.4368 79.1454 34.4368 79.7495 34.4368 80.3537ZM36.8534 51.3537C36.2493 51.3537 35.6451 50.7495 35.0409 50.1454C34.4368 49.5412 35.0409 49.5412 35.6451 48.937C36.2493 48.937 36.8534 48.937 37.4576 48.937C38.0618 48.937 38.6659 48.937 38.0618 49.5412C37.4576 50.1454 36.8534 50.7495 36.8534 51.3537Z" fill="#FF1010"/>
</g>
<g id="Oso">
<g id="Group_3">
<path id="Vector_2" d="M126.874 84.5825C126.27 83.3742 125.666 82.77 124.458 81.5617C124.458 77.3325 121.437 74.9159 117.812 73.1034C117.812 71.2909 117.812 71.2909 115.999 70.0825C114.187 70.0825 114.187 71.895 113.583 73.1034C111.166 73.7075 108.145 72.4992 105.729 73.7075C105.124 73.7075 105.124 73.7075 104.52 73.7075C103.916 73.1033 103.312 73.1034 102.708 73.1034C102.104 73.1034 100.895 73.1034 100.895 73.1034C100.291 72.4992 99.6868 73.7075 99.0827 73.1034C97.2702 73.1034 96.0618 73.7075 94.2493 74.9158L93.6452 74.3117C90.6243 74.3117 87.6035 74.3117 83.9785 74.3117C83.3743 74.3117 82.166 74.9158 81.5618 74.9158C79.1452 74.9158 77.3327 76.1242 75.5202 76.7283C73.1035 77.9367 71.291 79.7492 69.4785 82.1658C67.666 83.9783 67.0618 86.395 65.8535 89.4158C65.2493 91.8325 64.6452 94.8533 64.041 97.27C64.041 100.291 64.041 103.312 64.041 106.332C67.666 106.332 70.6868 106.332 73.7077 106.332C73.1035 105.124 72.4993 104.52 71.8952 103.916C72.4993 102.708 73.1035 101.499 73.7077 100.895C74.916 103.312 76.1243 105.124 77.9368 106.937C80.9577 106.937 83.3743 106.937 86.3952 106.937C85.791 106.937 86.3952 105.124 85.1868 105.124C84.5827 105.124 83.3743 103.916 83.9785 102.707C83.9785 102.707 83.3743 102.103 83.3743 101.499C83.3743 100.895 83.3743 100.291 82.7702 99.6867C84.5827 99.6867 85.791 100.291 87.6035 100.291C88.2077 101.499 88.8118 102.103 88.8118 103.312C88.8118 104.52 88.8118 105.728 88.8118 106.937C91.8327 106.937 95.4577 106.937 98.4785 106.937C98.4785 106.937 98.4785 106.937 99.0827 106.332C98.4785 105.728 97.8743 105.124 97.2702 104.52C97.2702 102.103 99.0827 99.6867 99.6868 97.8742C101.499 97.27 99.6868 99.6867 101.499 99.6867C102.104 99.6867 102.708 100.895 103.312 101.499C103.916 102.103 104.52 102.708 105.124 103.916C105.729 104.52 106.333 105.124 106.937 105.728C110.562 105.728 113.583 105.728 116.604 105.728C115.999 105.124 115.395 103.916 114.791 103.916C113.583 103.916 113.583 102.707 113.583 102.103C112.979 99.6867 111.77 97.27 111.166 94.8533C110.562 93.0408 110.562 90.6242 109.958 88.2075C111.77 86.395 112.979 84.5825 115.999 86.395H116.604C118.416 86.395 120.229 86.395 121.437 86.9992C122.645 87.6033 123.854 87.6033 125.062 86.9992C125.666 86.395 126.874 85.7908 127.479 85.1867V84.5825C128.083 85.1867 127.479 85.1867 126.874 84.5825ZM120.229 80.9575C119.624 80.9575 119.02 80.3533 119.02 79.7492C119.02 79.145 119.624 78.5408 120.229 78.5408C120.833 78.5408 121.437 79.145 121.437 79.7492C121.437 80.3533 120.833 80.9575 120.229 80.9575Z" fill="#FF1010"/>
</g>
</g>
</g>
<g id="Group_4">
<path id="Vector_3" d="M72.4996 142.583C33.8329 142.583 2.41626 111.166 2.41626 72.4996C2.41626 33.8329 33.8329 2.41626 72.4996 2.41626C111.166 2.41626 142.583 33.8329 142.583 72.4996C142.583 111.166 111.166 142.583 72.4996 142.583ZM72.4996 9.66626C38.0621 9.66626 9.66626 38.0621 9.66626 72.4996C9.66626 106.937 37.4579 135.333 72.4996 135.333C107.541 135.333 135.333 106.937 135.333 72.4996C135.333 38.0621 106.937 9.66626 72.4996 9.66626Z" fill="#FF1010"/>
</g>
</g>
</g>
</svg>
