<?xml version="1.0" encoding="utf-8"?>
<!-- Generator: Adobe Illustrator 22.0.0, SVG Export Plug-In . SVG Version: 6.00 Build 0)  -->
<svg version="1.1" id="Capa_1" xmlns="http://www.w3.org/2000/svg" xmlns:xlink="http://www.w3.org/1999/xlink" x="0px" y="0px"
	 viewBox="0 0 15 15" style="enable-background:new 0 0 15 15;" xml:space="preserve">
<style type="text/css">
	.st0{fill:#FF1010;}
</style>
<g>
	<g>
		<path class="st0" d="M-56.5,7.5"/>
	</g>
</g>
<path class="st0" d="M7.5,0.5c-3.9,0-7,3.1-7,7c0,3.9,3.1,7,7,7c3.9,0,7-3.1,7-7C14.5,3.6,11.4,0.5,7.5,0.5z M5.6,5.6L2.3,7.5
	l3.3,1.9v1L1.4,7.9V7.1l4.3-2.5V5.6z M7,11.7H6.2L8,3.3h0.8L7,11.7z M9.4,10.4v-1l3.3-1.9L9.4,5.6v-1l4.3,2.5v0.9L9.4,10.4z"/>
</svg>
