<svg width="145" height="145" viewBox="0 0 145 145" fill="none" xmlns="http://www.w3.org/2000/svg">
<g id="icon-madera 1">
<g id="cerrucho">
<path id="Vector" d="M123.854 62.2287C121.437 67.6662 119.02 72.4995 117.208 77.937C116.604 76.7287 116 76.1245 114.791 75.5203C114.187 76.1245 113.583 77.3328 112.979 77.937C112.375 77.3328 111.77 76.7287 111.166 75.5203C110.562 76.1245 109.958 77.3328 109.354 77.937C108.75 77.3328 108.145 76.7287 106.937 75.5203C106.333 76.1245 105.729 77.3328 105.125 78.5412C104.52 77.937 103.916 76.7287 103.312 76.1245C102.708 77.3328 102.104 77.937 101.5 79.1453C100.895 78.5412 100.291 77.3328 99.6871 76.7287C99.0829 77.3328 98.4788 78.5412 97.8746 79.7495C97.2704 78.5412 96.6663 77.937 96.0621 76.7287C95.4579 77.937 94.8538 78.5412 93.6454 79.7495C93.0413 78.5412 93.0413 77.937 91.8329 76.7287C90.6246 78.5412 90.6246 79.1453 89.4163 80.3537C88.8121 79.7495 88.2079 78.5412 87.6038 77.937C86.9996 78.5412 86.3954 79.7495 85.7913 80.3537C85.1871 79.7495 84.5829 78.5412 83.9788 77.937C83.3746 79.1453 82.7704 79.7495 82.1663 80.9578C81.5621 80.3537 80.9579 79.7495 79.7496 78.5412C79.1454 79.7495 78.5413 80.3537 77.9371 81.562C77.3329 80.9578 76.7288 79.7495 76.1246 79.1453C75.5204 80.3537 74.9163 80.9578 74.3121 82.1662C73.7079 81.562 73.1038 80.3537 71.8954 79.7495C71.2913 80.9578 70.6871 81.562 70.0829 82.7703C69.4788 82.1662 68.8746 80.9578 67.6663 80.3537C67.0621 80.9578 66.4579 82.1662 65.8538 83.3745C65.2496 82.1662 64.6454 81.562 64.0413 80.3537C63.4371 81.562 62.8329 82.1662 61.6246 83.3745C61.0204 82.1662 61.0204 81.562 59.8121 79.7495C58.6038 81.562 58.6038 82.1662 57.9996 83.3745C57.3954 82.7703 56.7913 81.562 55.5829 80.9578C54.9788 81.562 54.3746 82.7703 53.7704 83.3745C53.1663 82.7703 52.5621 82.1662 51.9579 81.562H51.3538C48.9371 83.3745 47.1246 85.7912 44.1038 85.187C38.6663 85.187 33.2288 85.187 27.7913 85.187C24.1663 85.187 22.9579 83.9787 23.5621 80.3537C23.5621 79.7495 23.5621 79.1453 24.1663 78.5412C25.3746 72.4995 28.9996 65.8537 20.5413 60.4162C22.9579 59.812 24.1663 59.812 25.3746 59.812C32.0204 59.812 38.6663 59.812 44.7079 59.812C46.5204 59.812 47.7288 60.4162 48.3329 60.4162C50.1454 61.0203 51.3538 61.6245 53.1663 61.6245C74.9163 61.6245 96.0621 61.6245 117.812 61.6245C119.625 62.2287 121.437 62.2287 123.854 62.2287ZM35.6454 80.3537C38.6663 80.9578 39.8746 79.7495 39.8746 76.7287C39.8746 74.312 41.0829 71.2912 41.0829 68.8745C41.0829 67.062 42.8954 64.6453 39.8746 64.6453C37.4579 64.6453 34.4371 63.437 33.8329 67.6662C33.2288 70.687 32.6246 73.7078 32.0204 76.7287C31.4163 79.7495 32.6246 80.9578 35.6454 80.3537Z" fill="#FF1010"/>
</g>
<g id="Group">
<path id="Vector_2" d="M72.4996 142.583C33.8329 142.583 2.41626 111.166 2.41626 72.4996C2.41626 33.8329 33.8329 2.41626 72.4996 2.41626C111.166 2.41626 142.583 33.8329 142.583 72.4996C142.583 111.166 111.166 142.583 72.4996 142.583ZM72.4996 9.66626C38.0621 9.66626 9.66626 38.0621 9.66626 72.4996C9.66626 106.937 37.4579 135.333 72.4996 135.333C107.541 135.333 135.333 106.937 135.333 72.4996C135.333 38.0621 106.937 9.66626 72.4996 9.66626Z" fill="#FF1010"/>
</g>
</g>
</svg>
